# xmcd CD database file
#
# Track frame offsets:
#	150
#	17434
#	35204
#	58107
#	79987
#	95848
#	113903
#	131635
#	144151
#	159741
#
# Disc length: 2366 seconds
#
# Revision: 0
# Processed by: cddbd v1.5.1PL0 Copyright (c) Steve Scherf et al.
# Submitted via: CDex 1.51
#
DISCID=89093c0a
DTITLE=Sugar Free Allstars - Dos Machos
DYEAR=2004
DGENRE=Blues
TTITLE0=Cover Band Boyfriend
TTITLE1=Buddhist in a Beemer
TTITLE2=The Way That It Goes
TTITLE3=Bender to Ender
TTITLE4=Cornbread
TTITLE5=Should'a Come Over
TTITLE6=My Key
TTITLE7=Great Big Car
TTITLE8=The Way That I Felt Today
TTITLE9=Ain't No Crime
EXTD=YEAR: 2004
EXTT0=
EXTT1=
EXTT2=
EXTT3=
EXTT4=
EXTT5=
EXTT6=
EXTT7=
EXTT8=
EXTT9=
PLAYORDER=
